# xmcd CD database file
# Copyright (C) 1996 Ti Kan
#
# Track frame offsets:
# 	183
# 	14940
# 	27165
# 	39173
# 	51425
# 	65233
# 	79593
# 	93805
# 	107473
# 	121633
# 	136083
# 	148658
# 	162318
# 	175813
# 	188423
# 	201703
#
# Disc length: 2855 seconds
#
# Revision: 1
# Processed by: cddbd v1.4b41PL1 Copyright (c) Steve Scherf et al.
# Submitted via: DiscPlay 3.4.1
#
DISCID=d60b2510
DTITLE=T. Bone Walker - T. Bone Shuffle (Charly Blues Masterworks Vol. 
DTITLE=14)
DYEAR=1900
DGENRE=
TTITLE0=I Got A Break Baby
TTITLE1=No Worry Blues
TTITLE2=Bobby Sox Blues
TTITLE3=I'm In An Awful Mood
TTITLE4=Don't Give Me The Runaround
TTITLE5=Hard Pain Blues
TTITLE6=Goodbye Blues
TTITLE7=I'm Waiting For Your Call
TTITLE8=First Love Blues
TTITLE9=Born To Be No Good
TTITLE10=Inspiration Blues
TTITLE11=Description Blues
TTITLE12=T. Bone Shuffle
TTITLE13=I Want A Little Girl
TTITLE14=I'm Still In Love With You
TTITLE15=West Side Baby
EXTD=
EXTT0=
EXTT1=
EXTT2=
EXTT3=
EXTT4=
EXTT5=
EXTT6=
EXTT7=
EXTT8=
EXTT9=
EXTT10=
EXTT11=
EXTT12=
EXTT13=
EXTT14=
EXTT15=
PLAYORDER=
